<?xml version="1.0" encoding="UTF-8" standalone="no"?>
<!-- Created with Inkscape (http://www.inkscape.org/) -->

<svg
   width="170.03766mm"
   height="165.30484mm"
   viewBox="0 0 170.03766 165.30484"
   version="1.1"
   id="svg1"
   inkscape:version="1.4 (86a8ad7, 2024-10-11)"
   xml:space="preserve"
   xmlns:inkscape="http://www.inkscape.org/namespaces/inkscape"
   xmlns:sodipodi="http://sodipodi.sourceforge.net/DTD/sodipodi-0.dtd"
   xmlns="http://www.w3.org/2000/svg"
   xmlns:svg="http://www.w3.org/2000/svg"><sodipodi:namedview
     id="namedview1"
     pagecolor="#e7e7e7"
     bordercolor="#eeeeee"
     borderopacity="1"
     inkscape:showpageshadow="0"
     inkscape:pageopacity="0"
     inkscape:pagecheckerboard="0"
     inkscape:deskcolor="#515151"
     inkscape:document-units="mm"><inkscape:page
       x="-8.2642457e-14"
       y="-6.3242712e-14"
       width="170.03764"
       height="165.30486"
       id="page2"
       margin="0"
       bleed="0" /></sodipodi:namedview><defs
     id="defs1" /><g
     inkscape:label="Calque 1"
     inkscape:groupmode="layer"
     id="layer1"
     transform="translate(-17.326593,-66.761004)"><path
       style="fill:#ffffff"
       d="m 71.21103,231.69044 c -4.82414,-1.29956 -8.39849,-4.58111 -10.0316,-9.20984 -2.67089,-7.57011 1.99437,-16.24795 9.83259,-18.28954 1.77827,-0.46318 5.24774,-0.52165 7.00047,-0.11798 4.8233,1.11086 9.27329,5.63521 10.44956,10.62419 1.75517,7.44429 -3.05161,15.24205 -10.47419,16.99167 -2.09119,0.49293 -4.95023,0.49356 -6.77683,0.001 z m 81.81083,0.23156 c -5.32584,-1.13692 -9.79845,-5.27441 -11.09894,-10.26732 -0.53387,-2.04966 -0.52819,-5.73014 0.0117,-7.56813 1.47229,-5.01245 5.71979,-9.03161 10.61973,-10.04883 2.35895,-0.48972 6.20774,-0.20266 8.18591,0.61054 5.48885,2.25639 9.08266,7.52524 9.08266,13.31597 0,6.32219 -4.53917,12.10048 -10.77497,13.71634 -1.47322,0.38175 -4.75317,0.51316 -6.02607,0.24143 z M 78.93853,197.92954 C 69.93737,196.7962 64.80982,192.63748 63.71522,185.5826 63.17668,182.11165 64.381,176.50187 66.6146,172.07715 l 0.80153,-1.58783 -2.21528,-7.49493 c -1.2184,-4.1222 -3.90127,-13.15039 -5.96193,-20.06263 -2.06066,-6.91224 -5.11096,-17.15161 -6.77844,-22.75417 -1.66749,-5.60255 -4.96705,-16.67536 -7.33237,-24.60625 L 40.827536,81.15155 31.572615,81.01926 c -8.856796,-0.1266 -9.301051,-0.15699 -10.327253,-0.70638 -2.541084,-1.3604 -3.920318,-3.62607 -3.91877,-6.43737 0.0015,-2.76401 1.358466,-4.94067 3.932768,-6.30853 l 1.322917,-0.70293 11.736149,-0.079 c 12.672554,-0.0853 13.734674,-0.002 15.681334,1.2351 2.04362,1.29837 2.35581,2.02119 5.69916,13.19537 l 3.10653,10.3827 61.79258,0.0683 61.79258,0.0683 1.1616,0.61963 c 2.43784,1.3004 3.83425,3.59355 3.81176,6.25953 -0.007,0.87313 -1.04479,6.88579 -2.30537,13.36146 -3.4425,17.68422 -5.36454,27.60008 -5.94912,30.69167 -4.07874,21.57052 -4.22134,22.10766 -6.30651,23.75568 -1.34106,1.05991 -2.8471,1.52328 -6.15507,1.89379 -1.52797,0.17114 -8.13594,0.96292 -14.68437,1.75951 -6.54844,0.79659 -13.81125,1.67571 -16.13959,1.9536 -7.96685,0.95084 -28.57182,3.44323 -31.75,3.8405 -1.74625,0.21828 -8.7114,1.05908 -15.47812,1.86844 -6.76672,0.80937 -12.4455,1.51801 -12.6195,1.57476 -0.44948,0.14659 -1.13883,2.64296 -1.13883,4.12405 0,1.69722 0.86593,2.42471 3.61388,3.03607 2.37331,0.52801 5.16712,0.45445 14.77466,-0.38902 27.54165,-2.41795 53.47992,-3.83863 67.33646,-3.68812 l 8.33437,0.0905 1.24974,0.73464 c 3.60722,2.12044 3.663,7.49432 0.0995,9.58269 l -1.15027,0.6741 -11.07968,0.10459 c -16.54624,0.1562 -39.10453,1.50251 -69.15152,4.12706 -6.40463,0.55943 -7.10348,0.57489 -9.92607,0.21949 z M 89.38957,163.3067 c 4.72943,-0.58054 8.62872,-1.05661 8.6651,-1.05794 0.0364,-0.001 0.0661,-6.01507 0.0661,-13.36387 V 135.52343 H 85.00606 c -12.36459,0 -13.10708,0.0265 -12.98138,0.46302 0.37031,1.28614 6.92379,23.32282 7.63237,25.66458 0.45133,1.49159 0.89101,2.7118 0.97706,2.71158 0.0861,-2.1e-4 4.02598,-0.47538 8.75541,-1.05591 z m 29.50104,-3.57924 c 6.69396,-0.79829 12.88521,-1.54093 13.75833,-1.6503 l 1.5875,-0.19886 0.0452,-11.17744 0.0452,-11.17743 H 119.66342 105 V 148.5 161.47657 l 0.85989,-0.14883 c 0.47294,-0.0819 6.33677,-0.80198 13.03073,-1.60028 z m 33.19199,-3.99502 c 5.60982,-0.67224 10.21564,-1.23778 10.23515,-1.25677 0.0767,-0.0747 3.54373,-18.31138 3.54018,-18.62151 -0.003,-0.25984 -2.66927,-0.33073 -12.43919,-0.33073 h -12.43542 v 10.71562 c 0,9.90899 0.0339,10.71563 0.4498,10.71563 0.24739,0 5.03965,-0.55001 10.64948,-1.22224 z M 98.12082,117.26717 v -11.37708 h -17.4625 c -9.60438,0 -17.4625,0.0907 -17.4625,0.20152 0,0.25493 1.58247,5.68991 3.79329,13.02803 0.94255,3.12849 1.96797,6.55137 2.27871,7.60639 l 0.56499,1.91823 h 14.144 14.14401 z m 36.24228,0 -0.0152,-11.37708 h -14.67397 -14.67397 v 11.37708 11.37709 h 14.68914 14.68914 z m 35.03317,0.59532 c 1.13355,-5.92998 2.12289,-11.04967 2.19854,-11.37709 l 0.13754,-0.59531 h -15.37451 -15.37452 v 11.37708 11.37709 h 13.17598 13.17597 z"
       id="path1" /></g></svg>
